<svg width="2500" height="977" viewBox="0 0 2500 977" fill="none" xmlns="http://www.w3.org/2000/svg">
<path fill-rule="evenodd" clip-rule="evenodd" d="M325.449 927.734L179.102 875.215V660.713L325.449 710.576V927.734ZM352.295 927.734L498.643 875.225V660.713L352.295 710.576V927.734ZM194.141 644.668L342.256 602.969L479.6 647.256L342.256 693.887L194.141 644.668V644.668ZM151.211 628.057L4.86328 575.557V361.035L151.211 410.898V628.057ZM178.057 628.057L324.414 575.557V361.035L178.057 410.898V628.057V628.057ZM19.9023 344.98L168.027 303.291L305.371 347.578L168.027 394.209L19.9023 344.99V344.98ZM492.705 628.057L346.348 575.557V361.035L492.705 410.898V628.057ZM519.551 628.057L665.908 575.557V361.035L519.551 410.898V628.057V628.057ZM361.406 344.98L509.521 303.291L646.855 347.578L509.521 394.209L361.406 344.99V344.98ZM666.943 328.359L520.586 275.879V61.3574L666.943 111.211V328.359ZM693.789 328.359L840.137 275.879V61.3574L693.779 111.211V328.359H693.789ZM535.635 45.3125L683.76 3.61328L821.094 47.8906L683.76 94.5313L535.635 45.3125ZM1008.45 328.359L862.09 275.879V61.3574L1008.45 111.211V328.359ZM1035.28 328.359L1181.64 275.879V61.3574L1035.28 111.211V328.359ZM877.129 45.3125L1025.25 3.61328L1162.59 47.8906L1025.25 94.5215L877.129 45.3027" fill="#95A5A6"/>
<path fill-rule="evenodd" clip-rule="evenodd" d="M933.994 787.988L884.834 958.779H863.477L825.195 831.924L790.107 958.779H768.33L717.207 787.988H743.623L780.84 915.264L816.27 787.988H835.762L874.277 915.674L912.529 787.988H933.984H933.994Z" fill="#95A5A6"/>
<path fill-rule="evenodd" clip-rule="evenodd" d="M933.994 787.988L884.834 958.779H863.477L825.195 831.924L790.107 958.779H768.33L717.207 787.988H743.623L780.84 915.264L816.27 787.988H835.762L874.277 915.674L912.529 787.988H933.984H933.994Z" fill="#95A5A6"/>
<path fill-rule="evenodd" clip-rule="evenodd" d="M1069.99 907.832L1094.74 912.91C1090.23 927.51 1081.46 939.609 1068.42 949.17C1055.35 958.74 1040 963.525 1022.32 963.525C999.033 963.525 980.186 955.322 965.781 938.896C951.367 922.49 944.17 900.947 944.17 874.316C944.17 847.119 951.66 825.146 966.621 808.389C981.582 791.631 1000.38 783.252 1023.01 783.252C1045.3 783.252 1063.21 790.967 1076.78 806.396C1090.33 821.826 1097.29 844.912 1097.63 875.654H973.672C973.672 901.484 979.063 918.896 989.863 927.93C1000.65 936.943 1012.07 941.455 1024.1 941.455C1045.81 941.455 1061.11 930.244 1069.99 907.832V907.832ZM1068.54 855.859C1068.32 846.289 1066.75 837.773 1063.82 830.332C1060.89 822.9 1055.95 816.563 1048.97 811.318C1042 806.084 1033.61 803.467 1023.83 803.467C1010.67 803.467 999.512 808.193 990.342 817.666C981.172 827.139 976.035 839.853 974.912 855.85H1068.54V855.859Z" fill="#95A5A6"/>
<path fill-rule="evenodd" clip-rule="evenodd" d="M1069.99 907.832L1094.74 912.91C1090.23 927.51 1081.46 939.609 1068.42 949.17C1055.35 958.74 1040 963.525 1022.32 963.525C999.033 963.525 980.186 955.322 965.781 938.896C951.367 922.49 944.17 900.947 944.17 874.316C944.17 847.119 951.66 825.146 966.621 808.389C981.582 791.631 1000.38 783.252 1023.01 783.252C1045.3 783.252 1063.21 790.967 1076.78 806.396C1090.33 821.826 1097.29 844.912 1097.63 875.654H973.672C973.672 901.484 979.063 918.896 989.863 927.93C1000.65 936.943 1012.07 941.455 1024.1 941.455C1045.81 941.455 1061.11 930.244 1069.99 907.832V907.832ZM1068.54 855.859C1068.32 846.289 1066.75 837.773 1063.82 830.332C1060.89 822.9 1055.95 816.563 1048.97 811.318C1042 806.084 1033.61 803.467 1023.83 803.467C1010.67 803.467 999.512 808.193 990.342 817.666C981.172 827.139 976.035 839.853 974.912 855.85H1068.54V855.859Z" fill="#95A5A6"/>
<path fill-rule="evenodd" clip-rule="evenodd" d="M1145.37 958.779H1132.58V728.184H1159.19V816.465C1171.34 794.316 1188.09 783.252 1209.44 783.252C1228.99 783.252 1245.38 790.977 1258.59 806.445C1271.81 821.904 1278.42 844.355 1278.42 873.809C1278.42 899.199 1271.91 920.488 1258.93 937.705C1245.92 954.922 1229.01 963.525 1208.19 963.525C1185.01 963.525 1167.24 952.52 1154.86 930.518L1145.37 958.779V958.779ZM1159.19 891.816C1160.43 909.355 1165.81 922.07 1175.32 930C1184.83 937.91 1194.89 941.875 1205.47 941.875C1218.98 941.875 1229.88 936.006 1238.15 924.268C1246.44 912.539 1250.56 896.465 1250.56 876.045C1250.56 854.062 1246.57 836.768 1238.57 824.189C1230.58 811.611 1219.48 805.312 1205.3 805.312C1194.16 805.312 1184.11 809.805 1175.16 818.74C1166.2 827.705 1160.88 839.277 1159.19 853.467V891.816V891.816Z" fill="#95A5A6"/>
<path fill-rule="evenodd" clip-rule="evenodd" d="M1145.37 958.779H1132.58V728.184H1159.19V816.465C1171.34 794.316 1188.09 783.252 1209.44 783.252C1228.99 783.252 1245.38 790.977 1258.59 806.445C1271.81 821.904 1278.42 844.355 1278.42 873.809C1278.42 899.199 1271.91 920.488 1258.93 937.705C1245.92 954.922 1229.01 963.525 1208.19 963.525C1185.01 963.525 1167.24 952.52 1154.86 930.518L1145.37 958.779V958.779ZM1159.19 891.816C1160.43 909.355 1165.81 922.07 1175.32 930C1184.83 937.91 1194.89 941.875 1205.47 941.875C1218.98 941.875 1229.88 936.006 1238.15 924.268C1246.44 912.539 1250.56 896.465 1250.56 876.045C1250.56 854.062 1246.57 836.768 1238.57 824.189C1230.58 811.611 1219.48 805.312 1205.3 805.312C1194.16 805.312 1184.11 809.805 1175.16 818.74C1166.2 827.705 1160.88 839.277 1159.19 853.467V891.816V891.816Z" fill="#95A5A6"/>
<path fill-rule="evenodd" clip-rule="evenodd" d="M1346.22 914.521L1371.58 909.277C1377.23 930.732 1395.05 941.455 1425.04 941.455C1436.07 941.455 1445.45 938.984 1453.11 934.033C1460.78 929.092 1464.61 922.119 1464.61 913.125C1464.61 899.746 1454.85 891.26 1435.33 887.666L1399.37 880.82C1385.27 878.115 1374.07 872.812 1365.73 864.922C1357.4 857.031 1353.23 846.602 1353.23 833.633C1353.23 819.326 1358.92 807.344 1370.29 797.705C1381.66 788.066 1396.98 783.252 1416.24 783.252C1453.29 783.252 1476.16 797.734 1484.82 826.689L1460.49 831.924C1453.51 814.189 1439.16 805.312 1417.44 805.312C1406.63 805.312 1397.76 807.539 1390.84 811.963C1383.93 816.396 1380.46 822.588 1380.46 830.557C1380.46 843.105 1389.31 851.006 1406.99 854.268L1440.24 860.391C1475.06 866.699 1492.45 883.594 1492.45 911.025C1492.45 926.709 1485.98 939.395 1473.02 949.033C1460.06 958.701 1442.81 963.525 1421.28 963.525C1380.82 963.525 1355.79 947.188 1346.22 914.521V914.521Z" fill="#95A5A6"/>
<path fill-rule="evenodd" clip-rule="evenodd" d="M1346.22 914.521L1371.58 909.277C1377.23 930.732 1395.05 941.455 1425.04 941.455C1436.07 941.455 1445.45 938.984 1453.11 934.033C1460.78 929.092 1464.61 922.119 1464.61 913.125C1464.61 899.746 1454.85 891.26 1435.33 887.666L1399.37 880.82C1385.27 878.115 1374.07 872.812 1365.73 864.922C1357.4 857.031 1353.23 846.602 1353.23 833.633C1353.23 819.326 1358.92 807.344 1370.29 797.705C1381.66 788.066 1396.98 783.252 1416.24 783.252C1453.29 783.252 1476.16 797.734 1484.82 826.689L1460.49 831.924C1453.51 814.189 1439.16 805.312 1417.44 805.312C1406.63 805.312 1397.76 807.539 1390.84 811.963C1383.93 816.396 1380.46 822.588 1380.46 830.557C1380.46 843.105 1389.31 851.006 1406.99 854.268L1440.24 860.391C1475.06 866.699 1492.45 883.594 1492.45 911.025C1492.45 926.709 1485.98 939.395 1473.02 949.033C1460.06 958.701 1442.81 963.525 1421.28 963.525C1380.82 963.525 1355.79 947.188 1346.22 914.521V914.521Z" fill="#95A5A6"/>
<path fill-rule="evenodd" clip-rule="evenodd" d="M1633.96 907.832L1658.7 912.91C1654.21 927.51 1645.43 939.609 1632.37 949.17C1619.33 958.74 1603.95 963.525 1586.3 963.525C1563 963.525 1544.14 955.322 1529.75 938.896C1515.33 922.49 1508.14 900.947 1508.14 874.316C1508.14 847.119 1515.62 825.146 1530.61 808.389C1545.57 791.631 1564.36 783.252 1586.98 783.252C1609.26 783.252 1627.19 790.967 1640.75 806.396C1654.32 821.826 1661.26 844.912 1661.59 875.654H1537.64C1537.64 901.484 1543.04 918.896 1553.83 927.93C1564.63 936.943 1576.04 941.455 1588.08 941.455C1609.78 941.455 1625.08 930.244 1633.96 907.832V907.832ZM1632.51 855.859C1632.29 846.289 1630.71 837.773 1627.79 830.332C1624.86 822.9 1619.92 816.563 1612.95 811.318C1605.98 806.084 1597.58 803.467 1587.8 803.467C1574.65 803.467 1563.49 808.193 1554.31 817.666C1545.15 827.139 1539.99 839.853 1538.88 855.85H1632.51V855.859Z" fill="#95A5A6"/>
<path fill-rule="evenodd" clip-rule="evenodd" d="M1633.96 907.832L1658.7 912.91C1654.21 927.51 1645.43 939.609 1632.37 949.17C1619.33 958.74 1603.95 963.525 1586.3 963.525C1563 963.525 1544.14 955.322 1529.75 938.896C1515.33 922.49 1508.14 900.947 1508.14 874.316C1508.14 847.119 1515.62 825.146 1530.61 808.389C1545.57 791.631 1564.36 783.252 1586.98 783.252C1609.26 783.252 1627.19 790.967 1640.75 806.396C1654.32 821.826 1661.26 844.912 1661.59 875.654H1537.64C1537.64 901.484 1543.04 918.896 1553.83 927.93C1564.63 936.943 1576.04 941.455 1588.08 941.455C1609.78 941.455 1625.08 930.244 1633.96 907.832V907.832ZM1632.51 855.859C1632.29 846.289 1630.71 837.773 1627.79 830.332C1624.86 822.9 1619.92 816.563 1612.95 811.318C1605.98 806.084 1597.58 803.467 1587.8 803.467C1574.65 803.467 1563.49 808.193 1554.31 817.666C1545.15 827.139 1539.99 839.853 1538.88 855.85H1632.51V855.859Z" fill="#95A5A6"/>
<path fill-rule="evenodd" clip-rule="evenodd" d="M1716.82 958.779H1690.21V787.988H1713.53V827.803C1721.74 809.15 1729.99 797.07 1738.26 791.553C1746.53 786.016 1755.01 783.252 1763.69 783.252C1766.39 783.252 1769.88 783.457 1774.16 783.867V809.238H1768.77C1754.14 809.238 1742 814.678 1732.34 825.537C1722.67 836.397 1717.5 850.664 1716.82 868.359V958.779V958.779Z" fill="#95A5A6"/>
<path fill-rule="evenodd" clip-rule="evenodd" d="M1716.82 958.779H1690.21V787.988H1713.53V827.803C1721.74 809.15 1729.99 797.07 1738.26 791.553C1746.53 786.016 1755.01 783.252 1763.69 783.252C1766.39 783.252 1769.88 783.457 1774.16 783.867V809.238H1768.77C1754.14 809.238 1742 814.678 1732.34 825.537C1722.67 836.397 1717.5 850.664 1716.82 868.359V958.779V958.779Z" fill="#95A5A6"/>
<path fill-rule="evenodd" clip-rule="evenodd" d="M1939.41 787.988L1880.45 958.779H1852.88L1791.94 787.988H1821.38L1868.78 926.807L1915.82 787.988H1939.41Z" fill="#95A5A6"/>
<path fill-rule="evenodd" clip-rule="evenodd" d="M1939.41 787.988L1880.45 958.779H1852.88L1791.94 787.988H1821.38L1868.78 926.807L1915.82 787.988H1939.41Z" fill="#95A5A6"/>
<path fill-rule="evenodd" clip-rule="evenodd" d="M1960.68 728.184H1989.15V757.676H1960.68V728.184ZM1961.92 787.988H1988.53V958.779H1961.92V787.988Z" fill="#95A5A6"/>
<path fill-rule="evenodd" clip-rule="evenodd" d="M1960.68 728.184H1989.15V757.676H1960.68V728.184ZM1961.92 787.988H1988.53V958.779H1961.92V787.988Z" fill="#95A5A6"/>
<path fill-rule="evenodd" clip-rule="evenodd" d="M2127.54 898.965L2151.46 903.184C2148.08 922.061 2140.59 936.836 2128.98 947.51C2117.38 958.184 2102.91 963.525 2085.57 963.525C2062.03 963.525 2044.08 954.834 2031.76 937.451C2019.43 920.078 2013.25 898.867 2013.25 873.809C2013.25 847.852 2019.77 826.279 2032.77 809.062C2045.77 791.855 2063.49 783.252 2085.9 783.252C2104.49 783.252 2119.38 788.809 2130.59 799.941C2141.81 811.055 2148.75 825.43 2151.46 843.037L2127.53 847.598C2123.03 819.424 2109.41 805.312 2086.68 805.312C2072.05 805.312 2060.8 811.533 2052.93 823.975C2045.05 836.426 2041.11 852.559 2041.11 872.373C2041.11 894.229 2045.02 911.191 2052.83 923.301C2060.66 935.4 2071.66 941.455 2085.84 941.455C2107.77 941.455 2121.68 927.295 2127.54 898.975V898.965Z" fill="#95A5A6"/>
<path fill-rule="evenodd" clip-rule="evenodd" d="M2127.54 898.965L2151.46 903.184C2148.08 922.061 2140.59 936.836 2128.98 947.51C2117.38 958.184 2102.91 963.525 2085.57 963.525C2062.03 963.525 2044.08 954.834 2031.76 937.451C2019.43 920.078 2013.25 898.867 2013.25 873.809C2013.25 847.852 2019.77 826.279 2032.77 809.062C2045.77 791.855 2063.49 783.252 2085.9 783.252C2104.49 783.252 2119.38 788.809 2130.59 799.941C2141.81 811.055 2148.75 825.43 2151.46 843.037L2127.53 847.598C2123.03 819.424 2109.41 805.312 2086.68 805.312C2072.05 805.312 2060.8 811.533 2052.93 823.975C2045.05 836.426 2041.11 852.559 2041.11 872.373C2041.11 894.229 2045.02 911.191 2052.83 923.301C2060.66 935.4 2071.66 941.455 2085.84 941.455C2107.77 941.455 2121.68 927.295 2127.54 898.975V898.965Z" fill="#95A5A6"/>
<path fill-rule="evenodd" clip-rule="evenodd" d="M2301.5 907.832L2326.25 912.91C2321.76 927.51 2312.97 939.609 2299.92 949.17C2286.88 958.74 2271.5 963.525 2253.84 963.525C2230.54 963.525 2211.69 955.322 2197.29 938.896C2182.88 922.49 2175.68 900.947 2175.68 874.316C2175.68 847.119 2183.16 825.146 2198.14 808.389C2213.11 791.631 2231.9 783.252 2254.53 783.252C2276.8 783.252 2294.74 790.967 2308.29 806.396C2321.87 821.826 2328.8 844.912 2329.14 875.654H2205.18C2205.18 901.484 2210.58 918.896 2221.37 927.93C2232.18 936.943 2243.57 941.455 2255.63 941.455C2277.31 941.455 2292.62 930.244 2301.5 907.832V907.832ZM2300.06 855.859C2299.83 846.289 2298.25 837.773 2295.33 830.332C2292.4 822.9 2287.46 816.563 2280.49 811.318C2273.52 806.084 2265.13 803.467 2255.34 803.467C2242.18 803.467 2231.02 808.193 2221.85 817.666C2212.69 827.139 2207.53 839.853 2206.42 855.85H2300.06V855.859Z" fill="#95A5A6"/>
<path fill-rule="evenodd" clip-rule="evenodd" d="M2301.5 907.832L2326.25 912.91C2321.76 927.51 2312.97 939.609 2299.92 949.17C2286.88 958.74 2271.5 963.525 2253.84 963.525C2230.54 963.525 2211.69 955.322 2197.29 938.896C2182.88 922.49 2175.68 900.947 2175.68 874.316C2175.68 847.119 2183.16 825.146 2198.14 808.389C2213.11 791.631 2231.9 783.252 2254.53 783.252C2276.8 783.252 2294.74 790.967 2308.29 806.396C2321.87 821.826 2328.8 844.912 2329.14 875.654H2205.18C2205.18 901.484 2210.58 918.896 2221.37 927.93C2232.18 936.943 2243.57 941.455 2255.63 941.455C2277.31 941.455 2292.62 930.244 2301.5 907.832V907.832ZM2300.06 855.859C2299.83 846.289 2298.25 837.773 2295.33 830.332C2292.4 822.9 2287.46 816.563 2280.49 811.318C2273.52 806.084 2265.13 803.467 2255.34 803.467C2242.18 803.467 2231.02 808.193 2221.85 817.666C2212.69 827.139 2207.53 839.853 2206.42 855.85H2300.06V855.859Z" fill="#95A5A6"/>
<path fill-rule="evenodd" clip-rule="evenodd" d="M2344.16 914.521L2369.55 909.277C2375.18 930.732 2392.99 941.455 2422.98 941.455C2434.03 941.455 2443.39 938.984 2451.05 934.033C2458.72 929.092 2462.56 922.119 2462.56 913.125C2462.56 899.746 2452.8 891.26 2433.28 887.666L2397.31 880.82C2383.22 878.115 2372.02 872.812 2363.68 864.922C2355.35 857.031 2351.18 846.602 2351.18 833.633C2351.18 819.326 2356.86 807.344 2368.24 797.705C2379.61 788.066 2394.92 783.252 2414.19 783.252C2451.24 783.252 2474.1 797.734 2482.77 826.689L2458.44 831.924C2451.46 814.189 2437.11 805.312 2415.39 805.312C2404.58 805.312 2395.71 807.539 2388.8 811.963C2381.87 816.396 2378.41 822.588 2378.41 830.557C2378.41 843.105 2387.26 851.006 2404.95 854.268L2438.19 860.391C2473 866.699 2490.41 883.594 2490.41 911.025C2490.41 926.709 2483.94 939.395 2470.97 949.033C2458.01 958.701 2440.75 963.525 2419.23 963.525C2378.77 963.525 2353.74 947.188 2344.16 914.521V914.521Z" fill="#95A5A6"/>
<path fill-rule="evenodd" clip-rule="evenodd" d="M2344.16 914.521L2369.55 909.277C2375.18 930.732 2392.99 941.455 2422.98 941.455C2434.03 941.455 2443.39 938.984 2451.05 934.033C2458.72 929.092 2462.56 922.119 2462.56 913.125C2462.56 899.746 2452.8 891.26 2433.28 887.666L2397.31 880.82C2383.22 878.115 2372.02 872.812 2363.68 864.922C2355.35 857.031 2351.18 846.602 2351.18 833.633C2351.18 819.326 2356.86 807.344 2368.24 797.705C2379.61 788.066 2394.92 783.252 2414.19 783.252C2451.24 783.252 2474.1 797.734 2482.77 826.689L2458.44 831.924C2451.46 814.189 2437.11 805.312 2415.39 805.312C2404.58 805.312 2395.71 807.539 2388.8 811.963C2381.87 816.396 2378.41 822.588 2378.41 830.557C2378.41 843.105 2387.26 851.006 2404.95 854.268L2438.19 860.391C2473 866.699 2490.41 883.594 2490.41 911.025C2490.41 926.709 2483.94 939.395 2470.97 949.033C2458.01 958.701 2440.75 963.525 2419.23 963.525C2378.77 963.525 2353.74 947.188 2344.16 914.521V914.521Z" fill="#95A5A6"/>
<path fill-rule="evenodd" clip-rule="evenodd" d="M1744.43 422.979V381.963C1744.4 380.587 1744.64 379.219 1745.15 377.94C1745.66 376.662 1746.43 375.501 1747.4 374.528C1748.37 373.555 1749.53 372.79 1750.81 372.28C1752.09 371.77 1753.46 371.526 1754.83 371.562L1938.7 371.543C1944.59 371.543 1949.31 375.82 1949.32 381.895L1949.31 417.09C1949.26 422.988 1944.29 430.693 1935.46 442.91L1840.22 578.896C1875.58 578.066 1912.98 583.359 1945.1 601.416C1952.34 605.479 1954.28 611.514 1954.84 617.432V661.201C1954.84 667.236 1948.25 674.209 1941.31 670.576C1884.72 640.937 1809.61 637.686 1747.04 670.938C1740.64 674.355 1733.96 667.471 1733.96 661.436V619.824C1733.96 613.164 1734.07 601.777 1740.79 591.621L1851.14 433.32L1755.06 433.311C1749.19 433.311 1744.48 429.111 1744.44 422.979H1744.43ZM1086.43 679.199H1030.48C1025.16 678.857 1020.91 674.854 1020.48 669.756L1020.52 382.646C1020.52 376.914 1025.35 372.314 1031.31 372.314L1083.4 372.305C1088.86 372.578 1093.23 376.699 1093.57 381.943V419.434H1094.63C1108.2 383.184 1133.79 366.26 1168.24 366.26C1203.23 366.26 1225.16 383.184 1240.83 419.434C1254.4 383.184 1285.21 366.26 1318.11 366.26C1341.6 366.26 1367.19 375.928 1382.85 397.676C1400.61 421.836 1396.95 456.885 1396.95 487.695L1396.91 668.867C1396.91 674.609 1392.08 679.209 1386.12 679.209H1330.25C1324.64 678.848 1320.21 674.395 1320.21 668.897V516.689C1320.21 504.609 1321.24 474.404 1318.62 462.93C1314.44 443.594 1301.92 438.154 1285.73 438.154C1272.16 438.154 1258.06 447.217 1252.31 461.719C1246.56 476.221 1247.09 500.381 1247.09 516.699V668.867C1247.09 674.609 1242.26 679.209 1236.31 679.209H1180.43C1174.81 678.848 1170.39 674.395 1170.39 668.897L1170.33 516.689C1170.33 484.678 1175.56 437.549 1135.88 437.549C1095.66 437.549 1097.24 483.467 1097.24 516.689L1097.21 668.867C1097.21 674.609 1092.38 679.209 1086.43 679.209V679.199ZM2084.38 366.26C2166.75 366.26 2211.3 437.549 2211.3 528.174C2211.3 615.771 2162.09 685.254 2084.38 685.254C2003.57 685.254 1959.54 613.965 1959.54 525.156C1959.54 435.732 2004.1 366.27 2084.38 366.27V366.26ZM2084.9 432.256C2043.97 432.256 2041.39 488.437 2041.39 523.477C2041.39 558.516 2040.87 626.045 2084.38 626.045C2127.38 626.045 2129.45 573.018 2129.45 536.172C2129.45 512.002 2128.43 482.998 2121.17 460.049C2114.94 440.107 2102.52 432.256 2084.9 432.256V432.256ZM2330.5 679.199H2274.78C2269.17 678.848 2264.74 674.395 2264.74 668.897L2264.64 381.689C2265.12 376.436 2269.76 372.314 2275.39 372.314L2327.28 372.305C2332.16 372.549 2336.19 375.889 2337.22 380.342V424.258H2338.27C2353.94 384.99 2375.86 366.26 2414.5 366.26C2439.56 366.26 2464.11 375.322 2479.78 400.098C2494.39 423.047 2494.39 461.719 2494.39 489.512V670.156C2493.77 675.254 2489.21 679.209 2483.68 679.209H2427.6C2422.42 678.867 2418.24 675.068 2417.64 670.156V514.277C2417.64 482.861 2421.3 436.943 2382.66 436.943C2369.06 436.943 2356.54 446.006 2350.28 459.902C2342.45 477.422 2341.4 494.941 2341.4 514.277V668.867C2341.3 674.609 2336.47 679.209 2330.5 679.209V679.199ZM1604.2 542.1C1604.2 563.906 1604.73 582.061 1593.75 601.436C1584.84 617.188 1570.71 626.865 1555.01 626.865C1533.56 626.865 1521.01 610.518 1521.01 586.299C1521.01 538.662 1563.74 529.99 1604.21 529.99V542.1H1604.2ZM1660.61 678.486C1656.89 681.807 1651.56 682.031 1647.38 679.795C1628.81 664.346 1625.48 657.207 1615.32 642.51C1584.61 673.799 1562.87 683.174 1523.1 683.174C1476.01 683.174 1439.38 654.111 1439.38 595.986C1439.38 550.576 1463.96 519.697 1499.02 504.561C1529.38 491.24 1571.77 488.818 1604.2 485.186V477.92C1604.2 464.6 1605.25 448.857 1597.4 437.354C1590.61 427.061 1577.52 422.822 1566.01 422.822C1544.67 422.822 1525.7 433.76 1521.05 456.416C1520.08 461.455 1516.4 466.436 1511.33 466.689L1457.11 460.83C1452.53 459.795 1447.44 456.123 1448.76 449.141C1461.22 383.359 1520.62 363.486 1573.86 363.486C1601.06 363.486 1636.65 370.752 1658.11 391.338C1685.31 416.768 1682.7 450.674 1682.7 487.607V574.756C1682.7 600.967 1693.59 612.471 1703.82 626.602C1707.38 631.68 1708.19 637.734 1703.62 641.455C1692.2 651.025 1671.9 668.672 1660.73 678.613L1660.61 678.486V678.486ZM877.246 542.1C877.246 563.906 877.773 582.061 866.787 601.436C857.891 617.188 843.76 626.865 828.057 626.865C806.602 626.865 794.053 610.518 794.053 586.299C794.053 538.662 836.787 529.99 877.246 529.99V542.1V542.1ZM933.652 678.486C929.941 681.807 924.6 682.031 920.43 679.795C901.846 664.346 898.516 657.207 888.359 642.51C857.656 673.799 835.908 683.174 796.143 683.174C749.043 683.174 712.412 654.111 712.412 595.986C712.412 550.576 737.002 519.697 772.07 504.561C802.422 491.24 844.815 488.818 877.246 485.186V477.92C877.246 464.6 878.291 448.857 870.449 437.354C863.643 427.061 850.557 422.822 839.053 422.822C817.715 422.822 798.74 433.76 794.082 456.416C793.115 461.455 789.443 466.436 784.365 466.689L730.156 460.83C725.576 459.795 720.488 456.123 721.807 449.141C734.268 383.359 793.662 363.486 846.904 363.486C874.111 363.486 909.697 370.752 931.152 391.338C958.359 416.768 955.742 450.674 955.742 487.607V574.756C955.742 600.967 966.631 612.471 976.855 626.602C980.43 631.68 981.231 637.734 976.68 641.455C965.254 651.025 944.941 668.672 933.779 678.613L933.652 678.486V678.486Z" fill="#95A5A6"/>
</svg>
