<svg width="244" height="244" viewBox="0 0 244 244" fill="none" xmlns="http://www.w3.org/2000/svg">
<path d="M122 210.2V176C158.2 176 186.3 140.1 172.4 102C167.3 87.9 156 76.6 141.9 71.5C103.8 57.7 67.9 85.7 67.9 121.9H33.8C33.8 64.2 89.6 19.2 150.1 38.1C176.5 46.4 197.6 67.4 205.8 93.8C224.7 154.4 179.8 210.2 122 210.2Z" fill="#0080FF"/>
<path d="M122.1 176.1H88.1V142.1H122.1V176.1Z" fill="#0080FF"/>
<path d="M88.1 202.3H61.9V176.1H88.1V202.3Z" fill="#0080FF"/>
<path d="M61.9 176.1H40V154.2H61.9V176.1Z" fill="#0080FF"/>
</svg>
