<svg width="1920" height="1080" viewBox="0 0 1920 1080" fill="none" xmlns="http://www.w3.org/2000/svg">
<rect width="1920" height="1080" fill="#121E8C"/>
<path d="M894.023 870V16.875H1134.84C1209.06 16.875 1274.69 33.2812 1331.72 66.0938C1388.75 98.9062 1432.7 145.586 1463.55 206.133C1494.8 266.68 1510.62 336.211 1511.02 414.727V469.219C1511.02 549.688 1495.39 620.195 1464.14 680.742C1433.28 741.289 1388.95 787.773 1331.13 820.195C1273.71 852.617 1206.72 869.219 1130.16 870H894.023ZM1006.52 109.453V778.008H1124.88C1211.6 778.008 1278.98 751.055 1327.03 697.148C1375.47 643.242 1399.69 566.484 1399.69 466.875V417.07C1399.69 320.195 1376.84 245 1331.13 191.484C1285.82 137.578 1221.37 110.234 1137.77 109.453H1006.52Z" fill="#D9D9D9" fill-opacity="0.1"/>
<path d="M1592.91 667.883H1392.52V1013H1279.44V159.875H1561.86C1657.95 159.875 1731.78 181.75 1783.34 225.5C1835.3 269.25 1861.27 332.922 1861.27 416.516C1861.27 469.641 1846.82 515.93 1817.91 555.383C1789.4 594.836 1749.55 624.328 1698.38 643.859L1898.77 1005.97V1013H1778.07L1592.91 667.883ZM1392.52 575.891H1565.38C1621.23 575.891 1665.57 561.438 1698.38 532.531C1731.59 503.625 1748.19 464.953 1748.19 416.516C1748.19 363.781 1732.37 323.352 1700.73 295.227C1669.48 267.102 1624.16 252.844 1564.79 252.453H1392.52V575.891Z" fill="#D9D9D9" fill-opacity="0.1"/>
</svg>
