<svg width="2859" height="776" viewBox="0 0 2859 776" fill="none" xmlns="http://www.w3.org/2000/svg">
<path fill-rule="evenodd" clip-rule="evenodd" d="M1185.92 641.928H1184.64C1185.22 641.928 1185.6 642.504 1186.18 642.632C1186.24 642.632 1186.5 642.568 1186.56 642.568L1185.92 641.928ZM1186.18 642.632C1180.22 642.696 1165.25 645.768 1149.44 645.768C1099.52 645.768 1082.24 622.726 1082.24 592.646V392.327H1184C1189.76 392.327 1194.24 387.207 1194.24 380.167V271.366C1194.24 265.606 1189.12 260.486 1184 260.486H1082.24V125.446C1082.24 120.326 1079.04 117.126 1073.28 117.126H935.04C929.28 117.126 926.08 120.326 926.08 125.446V264.327C926.08 264.327 856.32 281.606 851.84 282.246C846.72 283.526 843.52 288.006 843.52 293.126V380.167C843.52 387.207 848.64 392.327 854.4 392.327H925.44V602.247C925.44 758.408 1034.24 774.408 1108.48 774.408C1142.4 774.408 1183.36 763.528 1189.76 760.328C1193.6 759.048 1195.52 754.568 1195.52 750.088V654.088C1195.52 647.752 1191.17 643.528 1186.18 642.632ZM2702.72 501.766C2702.72 385.926 2656 370.566 2606.72 375.686C2568.32 378.246 2537.6 397.447 2537.6 397.447V622.727C2537.6 622.727 2568.96 644.488 2615.68 645.768C2681.6 647.688 2702.72 624.006 2702.72 501.766ZM2858.24 491.526C2858.24 711.048 2787.2 773.768 2663.04 773.768C2558.08 773.768 2501.76 720.648 2501.76 720.648C2501.76 720.648 2499.2 750.088 2496 753.928C2494.08 757.768 2490.88 759.048 2487.04 759.048H2392.32C2385.92 759.048 2380.16 753.928 2380.16 748.168L2381.44 37.1264C2381.44 31.3664 2386.56 26.2464 2392.32 26.2464H2528.64C2534.4 26.2464 2539.52 31.3664 2539.52 37.1264V278.406C2539.52 278.406 2592 244.486 2668.8 244.486L2668.16 243.206C2744.96 243.206 2858.24 272.006 2858.24 491.526ZM2300.16 260.486H2299.52H2165.76C2158.72 260.486 2154.88 265.606 2154.88 272.646V620.807C2154.88 620.807 2119.68 645.768 2071.68 645.768C2023.68 645.768 2009.6 624.006 2009.6 576.006V272.007C2009.6 266.247 2004.48 261.126 1998.72 261.126H1861.76C1856 261.126 1850.88 266.247 1850.88 272.007V599.047C1850.88 739.848 1929.6 775.048 2037.76 775.048C2126.72 775.048 2199.04 725.768 2199.04 725.768C2199.04 725.768 2202.24 750.728 2204.16 754.568C2205.44 757.768 2209.92 760.328 2214.4 760.328H2300.16C2307.2 760.328 2311.04 755.208 2311.04 749.448L2312.32 271.366C2312.32 265.606 2307.2 260.486 2300.16 260.486ZM783.36 259.846H647.04C641.28 259.846 636.16 265.606 636.16 272.646V742.408C636.16 755.208 644.48 759.688 655.36 759.688H778.24C791.04 759.688 794.24 753.928 794.24 742.408V271.366V270.727C794.24 264.967 789.12 259.846 783.36 259.846ZM716.16 43.5264C666.88 43.5264 627.84 82.5665 627.84 131.846C627.84 181.126 666.88 220.166 716.16 220.166C764.16 220.166 803.2 181.126 803.2 131.846C803.2 82.5665 764.16 43.5264 716.16 43.5264ZM1771.52 27.5264H1636.48C1630.72 27.5264 1625.6 32.6464 1625.6 38.4064V300.167H1413.76V38.4064C1413.76 32.6464 1408.64 27.5264 1402.88 27.5264H1266.56C1260.8 27.5264 1255.68 32.6464 1255.68 38.4064V749.448C1255.68 755.208 1261.44 760.328 1266.56 760.328H1402.88C1408.64 760.328 1413.76 755.208 1413.76 749.448V445.447H1625.6L1624.32 749.448C1624.32 755.208 1629.44 760.328 1635.2 760.328H1771.52C1777.28 760.328 1782.4 755.208 1782.4 749.448V38.4064C1782.4 32.6464 1777.28 27.5264 1771.52 27.5264ZM563.84 342.406V709.768C563.84 712.328 563.2 716.808 560 718.088C560 718.088 480 775.048 348.16 775.048C188.8 775.048 0 725.128 0 396.167C0 67.2065 165.12 -0.633519 326.4 0.00648067C465.92 0.00648067 522.24 31.3665 531.2 37.1265C533.76 40.3265 535.04 42.8865 535.04 46.0865L508.16 160.007C508.16 165.767 502.4 172.806 495.36 170.886C472.32 163.846 437.76 149.766 356.48 149.766C262.4 149.766 161.28 176.646 161.28 388.486C161.28 600.326 257.28 625.286 326.4 625.286C385.28 625.286 406.4 618.247 406.4 618.247V471.047H312.32C305.28 471.047 300.16 465.927 300.16 460.167V342.406C300.16 336.646 305.28 331.526 312.32 331.526H551.68C558.72 331.526 563.84 336.646 563.84 342.406Z" fill="#95A5A6"/>
</svg>
