<svg width="1019" height="314" viewBox="0 0 1019 314" fill="none" xmlns="http://www.w3.org/2000/svg">
<path d="M716.7 76.19H694.9L695 238.69H783.3V218.59H716.8L716.7 76.19V76.19Z" fill="#95A5A6"/>
<path d="M867.33 210.18C863.836 213.809 859.641 216.691 855 218.651C850.359 220.611 845.368 221.607 840.33 221.58C823.73 221.58 817.03 213.38 817.03 202.68C817.03 186.58 828.23 178.88 852.03 178.88C857.186 178.9 862.333 179.301 867.43 180.08V210.18H867.33ZM844.73 111.68C827.783 111.628 811.357 117.539 798.33 128.38L806.03 141.78C814.93 136.58 825.83 131.38 841.53 131.38C859.43 131.38 867.33 140.58 867.33 155.98V163.88C862.335 163.097 857.287 162.695 852.23 162.68C814.03 162.68 794.63 176.08 794.63 204.08C794.63 229.18 810.03 241.78 833.33 241.78C849.03 241.78 864.13 234.58 869.33 222.88L873.33 238.78H888.73V155.58C888.63 129.28 877.23 111.68 844.73 111.68V111.68Z" fill="#95A5A6"/>
<path d="M959.07 222.32C950.87 222.32 943.67 221.32 938.27 218.82V143.72C945.67 137.52 954.87 133.02 966.57 133.02C987.67 133.02 995.77 147.92 995.77 172.02C995.77 206.22 982.67 222.32 959.07 222.32V222.32ZM968.27 111.72C962.613 111.685 957.013 112.853 951.841 115.146C946.669 117.439 942.043 120.804 938.27 125.02V104L938.17 76.2H916.87L916.97 234.7C927.67 239.2 942.27 241.6 958.17 241.6C998.87 241.6 1018.47 215.6 1018.47 170.7C1018.37 135.2 1000.27 111.7 968.27 111.7" fill="#95A5A6"/>
<path d="M479.34 93.82C498.64 93.82 511.14 100.22 519.24 106.72L528.64 90.42C515.94 79.22 498.74 73.22 480.34 73.22C433.94 73.22 401.44 101.52 401.44 158.62C401.44 218.42 436.54 241.72 476.64 241.72C493.231 241.758 509.67 238.565 525.04 232.32L524.54 168.42V148.32H465V168.42H503L503.5 216.92C498.5 219.42 489.9 221.42 478.2 221.42C446 221.42 424.4 201.12 424.4 158.42C424.3 114.92 446.6 93.82 479.3 93.82" fill="#95A5A6"/>
<path d="M632.87 76.17H611.57L611.67 103.47V197.77C611.67 224.07 623.07 241.67 655.57 241.67C659.965 241.681 664.351 241.28 668.67 240.47V221.37C665.394 221.866 662.083 222.1 658.77 222.07C640.87 222.07 632.97 212.87 632.97 197.47V132.47H668.67V114.67H633L632.9 76.17H632.87Z" fill="#95A5A6"/>
<path d="M557.4 238.69H578.7V114.69H557.4V238.69Z" fill="#95A5A6"/>
<path d="M557.4 97.59H578.7V76.29H557.4V97.59Z" fill="#95A5A6"/>
<path d="M338.49 175.63L320.71 121C320.612 120.493 320.465 119.998 320.27 119.52L284.61 9.71999C283.655 6.88803 281.832 4.42919 279.399 2.69313C276.967 0.957073 274.048 0.0321862 271.06 0.0499961C268.079 0.0325943 265.172 0.971045 262.763 2.72763C260.355 4.48422 258.574 6.96643 257.68 9.80999L223.68 114.44H116.37L82.32 9.8C81.4303 6.96646 79.6577 4.49175 77.2611 2.73755C74.8646 0.983348 71.9699 0.041619 69 0.0499961H68.92C65.9293 0.0505164 63.0148 0.993967 60.5912 2.74619C58.1675 4.4984 56.358 6.97018 55.42 9.80999L19.73 119.75C19.73 119.84 19.65 119.93 19.62 120.02L1.51998 175.63C0.184183 179.707 0.177126 184.103 1.49982 188.184C2.82251 192.265 5.40668 195.822 8.87998 198.34L165.26 312C166.637 312.999 168.297 313.532 169.998 313.523C171.699 313.514 173.353 312.963 174.72 311.95V311.95L331.13 198.34C334.603 195.822 337.187 192.265 338.51 188.184C339.833 184.103 339.826 179.707 338.49 175.63V175.63ZM104.73 130.5L148.33 264.65L43.69 130.5H104.73ZM191.73 264.68L233.53 136.07L235.34 130.5H296.43L201.76 251.78L191.73 264.68ZM271.2 20.11L301.84 114.44H240.52L271.2 20.11ZM218.49 130.44L188.12 223.9L170 279.55L121.58 130.44H218.49ZM68.85 20.11L99.55 114.44H38.27L68.85 20.11ZM18.29 185.4C17.5532 184.865 17.0051 184.11 16.7248 183.244C16.4444 182.378 16.4462 181.445 16.73 180.58L30.17 139.29L128.74 265.66L18.29 185.4ZM321.72 185.4L211.26 265.61L211.64 265.13L309.84 139.29L323.27 180.57C323.555 181.436 323.559 182.369 323.281 183.237C323.002 184.105 322.456 184.862 321.72 185.4V185.4Z" fill="#95A5A6"/>
</svg>
