<svg width="429" height="141" viewBox="0 0 429 141" fill="none" xmlns="http://www.w3.org/2000/svg">
<path fill-rule="evenodd" clip-rule="evenodd" d="M105.877 49.8013H55.9059V64.6333H91.3453C89.5945 85.4318 72.2953 94.3015 55.9658 94.3015C35.0738 94.3015 16.8436 77.8596 16.8436 54.8141C16.8436 32.3644 34.2218 15.075 56.0119 15.075C72.8232 15.075 82.7293 25.7947 82.7293 25.7947L93.1117 15.0403C93.1117 15.0403 79.7856 0.201233 55.4813 0.201233C24.5355 0.201233 0.592987 26.3287 0.592987 54.5498C0.592987 82.2032 23.1151 109.169 56.2715 109.169C85.4344 109.169 106.782 89.1866 106.782 59.6385C106.782 53.4044 105.877 49.8013 105.877 49.8013Z" fill="#95A5A6"/>
<path d="M146.812 39.0611C126.308 39.0611 111.614 55.0952 111.614 73.7959C111.614 92.7731 125.866 109.105 147.053 109.105C166.233 109.105 181.946 94.4422 181.946 74.2038C181.946 51.0077 163.668 39.0611 146.812 39.0611ZM147.016 52.8178C157.099 52.8178 166.654 60.9718 166.654 74.1111C166.654 86.9716 157.14 95.358 146.97 95.358C135.795 95.358 126.979 86.4058 126.979 74.0091C126.979 61.8782 135.686 52.8178 147.016 52.8178Z" fill="#95A5A6"/>
<path d="M223.367 39.0611C202.863 39.0611 188.169 55.0952 188.169 73.7959C188.169 92.7731 202.421 109.105 223.608 109.105C242.788 109.105 258.501 94.4422 258.501 74.2038C258.501 51.0077 240.223 39.0611 223.367 39.0611ZM223.571 52.8178C233.654 52.8178 243.209 60.9718 243.209 74.1111C243.209 86.9716 233.694 95.358 223.525 95.358C212.35 95.358 203.534 86.4058 203.534 74.0091C203.534 61.8782 212.24 52.8178 223.571 52.8178Z" fill="#95A5A6"/>
<path d="M298.449 39.0982C279.629 39.0982 264.835 55.5863 264.835 74.0925C264.835 95.1728 281.986 109.152 298.125 109.152C308.104 109.152 313.41 105.19 317.327 100.642V107.548C317.327 119.631 309.993 126.867 298.922 126.867C288.227 126.867 282.862 118.912 280.998 114.399L267.542 120.025C272.316 130.122 281.925 140.651 299.033 140.651C317.745 140.651 332.007 128.862 332.007 104.137V41.2025H317.327V47.1353C312.817 42.2703 306.644 39.0982 298.449 39.0982ZM299.812 52.8271C309.039 52.8271 318.514 60.7079 318.514 74.1667C318.514 87.8464 309.059 95.3858 299.608 95.3858C289.574 95.3858 280.238 87.2366 280.238 74.2965C280.238 60.8505 289.934 52.8271 299.812 52.8271Z" fill="#95A5A6"/>
<path d="M397.279 39.0147C379.526 39.0147 364.62 53.143 364.62 73.9906C364.62 96.05 381.235 109.133 398.985 109.133C413.799 109.133 422.891 101.027 428.317 93.7635L416.213 85.7079C413.072 90.5834 407.822 95.3487 399.059 95.3487C389.215 95.3487 384.69 89.9574 381.886 84.7345L428.836 65.2489L426.398 59.5386C421.861 48.3556 411.28 39.0147 397.279 39.0147ZM397.891 52.4841C404.288 52.4841 408.892 55.8861 410.847 59.965L379.495 73.0728C378.143 62.9246 387.755 52.4841 397.891 52.4841Z" fill="#95A5A6"/>
<path fill-rule="evenodd" clip-rule="evenodd" d="M342.239 107.053H357.66V3.82193H342.239V107.053Z" fill="#95A5A6"/>
</svg>
