<svg width="831" height="193" viewBox="0 0 831 193" fill="none" xmlns="http://www.w3.org/2000/svg">
<path d="M186.501 166.221V89.0608H205.272V149.982H235.173V166.219H186.501V166.221V166.221Z" fill="#95A5A6"/>
<path d="M297.027 139.737C297.027 140.464 297.027 141.191 297.027 141.919C297.027 142.646 296.99 143.334 296.919 143.99H257.524C257.669 145.515 258.124 146.896 258.889 148.132C259.655 149.368 260.636 150.436 261.834 151.348C263.035 152.257 264.381 152.964 265.874 153.471C267.362 153.982 268.91 154.235 270.511 154.235C273.348 154.235 275.752 153.709 277.715 152.655C279.68 151.601 281.28 150.24 282.517 148.567L294.958 156.414C292.412 160.119 289.049 162.971 284.864 164.968C280.679 166.963 275.82 167.966 270.295 167.966C266.218 167.966 262.363 167.327 258.727 166.059C255.089 164.786 251.908 162.937 249.177 160.499C246.451 158.067 244.303 155.07 242.738 151.51C241.174 147.95 240.394 143.882 240.394 139.302C240.394 134.873 241.157 130.856 242.684 127.261C244.212 123.667 246.286 120.613 248.906 118.107C251.524 115.599 254.614 113.656 258.183 112.275C261.746 110.897 265.603 110.204 269.749 110.204C273.749 110.204 277.424 110.877 280.77 112.221C284.116 113.565 286.99 115.508 289.393 118.051C291.794 120.594 293.664 123.682 295.012 127.316C296.356 130.947 297.027 135.091 297.027 139.737V139.737ZM280.549 132.87C280.549 130.038 279.658 127.603 277.875 125.569C276.091 123.537 273.417 122.517 269.855 122.517C268.108 122.517 266.509 122.79 265.052 123.336C263.596 123.881 262.326 124.625 261.232 125.569C260.142 126.515 259.268 127.623 258.614 128.895C257.96 130.168 257.595 131.495 257.524 132.87H280.549V132.87Z" fill="#95A5A6"/>
<path d="M325.617 125.244V146.031C325.617 148.584 326.109 150.495 327.093 151.775C328.072 153.053 329.836 153.687 332.385 153.687C333.256 153.687 334.183 153.618 335.167 153.468C336.149 153.323 336.966 153.107 337.623 152.815L337.841 165.892C336.604 166.327 335.039 166.708 333.15 167.037C331.256 167.364 329.366 167.526 327.474 167.526C323.836 167.526 320.778 167.069 318.305 166.16C315.83 165.251 313.847 163.939 312.359 162.224C310.866 160.514 309.793 158.475 309.139 156.107C308.482 153.741 308.157 151.1 308.157 148.186V125.244H299.426V111.948H308.046V97.6719H325.617V111.948H338.385V125.244H325.617V125.244Z" fill="#95A5A6"/>
<path d="M396.335 127.967C394.878 126.588 393.171 125.426 391.205 124.48C389.242 123.537 387.168 123.063 384.986 123.063C383.31 123.063 381.765 123.392 380.348 124.043C378.929 124.699 378.22 125.827 378.22 127.421C378.22 128.947 379 130.035 380.565 130.691C382.13 131.347 384.659 132.072 388.15 132.87C390.187 133.308 392.243 133.927 394.317 134.725C396.391 135.524 398.263 136.578 399.936 137.885C401.609 139.192 402.955 140.791 403.976 142.68C404.992 144.57 405.504 146.822 405.504 149.436C405.504 152.854 404.812 155.738 403.43 158.099C402.047 160.46 400.246 162.367 398.027 163.821C395.808 165.275 393.316 166.327 390.553 166.98C387.788 167.636 385.023 167.961 382.26 167.961C377.819 167.961 373.475 167.253 369.216 165.836C364.962 164.42 361.415 162.33 358.578 159.568L368.618 148.997C370.215 150.741 372.181 152.195 374.51 153.355C376.838 154.52 379.313 155.099 381.933 155.099C383.389 155.099 384.826 154.753 386.243 154.063C387.662 153.375 388.371 152.156 388.371 150.414C388.371 148.741 387.5 147.508 385.753 146.707C384.007 145.908 381.281 145.073 377.568 144.199C375.677 143.764 373.785 143.184 371.893 142.457C369.998 141.73 368.308 140.752 366.82 139.513C365.329 138.28 364.109 136.755 363.164 134.936C362.219 133.123 361.747 130.942 361.747 128.399C361.747 125.129 362.436 122.35 363.821 120.061C365.204 117.771 366.985 115.904 369.169 114.449C371.352 112.995 373.77 111.926 376.424 111.233C379.079 110.541 381.716 110.197 384.339 110.197C388.41 110.197 392.393 110.835 396.285 112.103C400.177 113.376 403.472 115.282 406.163 117.825L396.335 127.967V127.967Z" fill="#95A5A6"/>
<path d="M439.769 166.221V89.0608H491.713V104.755H457.775V119.358H489.858V134.288H457.775V150.309H493.679V166.221H439.769V166.221Z" fill="#95A5A6"/>
<path d="M540.9 166.221V136.578C540.9 135.052 540.769 133.6 540.518 132.219C540.262 130.839 539.844 129.622 539.261 128.568C538.678 127.517 537.861 126.679 536.806 126.06C535.75 125.446 534.422 125.134 532.823 125.134C531.224 125.134 529.821 125.446 528.621 126.06C527.423 126.679 526.419 127.534 525.619 128.623C524.82 129.711 524.22 130.966 523.821 132.381C523.42 133.799 523.221 135.271 523.221 136.796V166.221H505.215V111.948H522.566V119.469H522.785C523.442 118.306 524.293 117.164 525.351 116.039C526.404 114.911 527.644 113.948 529.061 113.15C530.481 112.351 532.026 111.695 533.701 111.187C535.374 110.681 537.155 110.423 539.047 110.423C542.686 110.423 545.776 111.079 548.324 112.386C550.873 113.693 552.925 115.383 554.492 117.451C556.057 119.523 557.183 121.903 557.875 124.588C558.564 127.279 558.911 129.966 558.911 132.654V166.219H540.9V166.221V166.221Z" fill="#95A5A6"/>
<path d="M604.958 129.492C603.937 128.185 602.554 127.134 600.81 126.333C599.063 125.534 597.277 125.134 595.461 125.134C593.567 125.134 591.86 125.515 590.332 126.279C588.804 127.043 587.495 128.062 586.403 129.33C585.313 130.603 584.455 132.074 583.837 133.745C583.22 135.418 582.91 137.194 582.91 139.086C582.91 140.975 583.2 142.754 583.783 144.425C584.364 146.098 585.217 147.569 586.346 148.839C587.473 150.112 588.819 151.112 590.386 151.837C591.951 152.564 593.715 152.925 595.678 152.925C597.493 152.925 599.297 152.581 601.078 151.891C602.859 151.2 604.298 150.201 605.388 148.894L615.32 160.991C613.064 163.17 610.151 164.877 606.589 166.113C603.024 167.346 599.24 167.966 595.24 167.966C590.947 167.966 586.939 167.31 583.217 166.003C579.497 164.696 576.265 162.787 573.522 160.281C570.776 157.775 568.618 154.743 567.044 151.183C565.469 147.623 564.685 143.592 564.685 139.086C564.685 134.654 565.469 130.657 567.044 127.097C568.618 123.539 570.776 120.503 573.522 117.997C576.265 115.489 579.5 113.565 583.217 112.221C586.939 110.877 590.91 110.204 595.132 110.204C597.095 110.204 599.041 110.386 600.97 110.752C602.896 111.113 604.751 111.607 606.535 112.223C608.318 112.84 609.954 113.604 611.445 114.513C612.936 115.422 614.23 116.42 615.32 117.51L604.958 129.492V129.492Z" fill="#95A5A6"/>
<path d="M657.406 126.66C656.604 126.441 655.822 126.298 655.059 126.225C654.297 126.151 653.549 126.114 652.823 126.114C650.422 126.114 648.402 126.551 646.766 127.419C645.13 128.288 643.821 129.337 642.837 130.571C641.855 131.802 641.144 133.143 640.709 134.593C640.274 136.042 640.055 137.307 640.055 138.396V166.219H622.157V112.012H639.4V119.859H639.619C641.002 117.078 642.963 114.81 645.514 113.054C648.058 111.297 651.005 110.42 654.353 110.42C655.079 110.42 655.79 110.459 656.481 110.531C657.17 110.602 657.736 110.713 658.174 110.857L657.406 126.66V126.66Z" fill="#95A5A6"/>
<path d="M699.451 174.395C698.361 177.228 697.14 179.753 695.795 181.969C694.449 184.183 692.85 186.072 690.995 187.637C689.14 189.2 686.955 190.376 684.446 191.177C681.937 191.976 678.97 192.376 675.552 192.376C673.877 192.376 672.15 192.266 670.371 192.047C668.585 191.828 667.04 191.538 665.731 191.177L667.697 176.139C668.568 176.427 669.532 176.665 670.59 176.847C671.643 177.026 672.608 177.117 673.481 177.117C676.246 177.117 678.246 176.481 679.484 175.211C680.719 173.938 681.774 172.142 682.648 169.818L684.394 165.352L661.694 111.951H681.555L693.669 146.825H693.996L704.801 111.951H723.789L699.451 174.395V174.395Z" fill="#95A5A6"/>
<path d="M788.937 138.867C788.937 142.646 788.354 146.279 787.19 149.766C786.024 153.254 784.334 156.323 782.117 158.974C779.898 161.627 777.187 163.752 773.987 165.352C770.783 166.946 767.147 167.749 763.071 167.749C759.725 167.749 756.561 167.079 753.577 165.735C750.593 164.391 748.268 162.556 746.593 160.232H746.376V192.381H728.478V111.948H745.503V118.596H745.83C747.505 116.417 749.813 114.511 752.76 112.874C755.705 111.241 759.179 110.423 763.182 110.423C767.11 110.423 770.673 111.187 773.876 112.712C777.077 114.238 779.785 116.309 782.007 118.923C784.228 121.537 785.936 124.574 787.136 128.023C788.337 131.475 788.937 135.091 788.937 138.867V138.867ZM771.585 138.867C771.585 137.123 771.315 135.418 770.769 133.745C770.222 132.074 769.42 130.603 768.365 129.33C767.31 128.06 765.981 127.026 764.382 126.225C762.783 125.424 760.928 125.026 758.817 125.026C756.78 125.026 754.96 125.426 753.36 126.225C751.759 127.023 750.393 128.077 749.267 129.384C748.137 130.691 747.267 132.182 746.649 133.851C746.029 135.524 745.722 137.229 745.722 138.973C745.722 140.717 746.029 142.425 746.649 144.095C747.267 145.768 748.137 147.255 749.267 148.562C750.393 149.869 751.759 150.925 753.36 151.724C754.957 152.522 756.78 152.92 758.817 152.92C760.925 152.92 762.78 152.522 764.382 151.724C765.984 150.925 767.31 149.869 768.365 148.562C769.421 147.255 770.222 145.746 770.769 144.039C771.312 142.336 771.585 140.612 771.585 138.867V138.867Z" fill="#95A5A6"/>
<path d="M817.529 125.244V146.031C817.529 148.584 818.021 150.495 819.005 151.775C819.984 153.053 821.748 153.687 824.297 153.687C825.168 153.687 826.096 153.618 827.08 153.468C828.061 153.323 828.878 153.107 829.535 152.815L829.754 165.892C828.516 166.327 826.952 166.708 825.062 167.037C823.168 167.364 821.279 167.526 819.387 167.526C815.748 167.526 812.69 167.069 810.218 166.16C807.743 165.251 805.76 163.939 804.271 162.224C802.778 160.514 801.705 158.475 801.051 156.107C800.394 153.741 800.069 151.1 800.069 148.186V125.244H791.338V111.948H799.959V97.6719H817.529V111.948H830.298V125.244H817.529V125.244Z" fill="#95A5A6"/>
<path d="M354.75 87.5818C349.38 87.5818 345.175 91.4464 345.175 96.3821C345.175 101.581 348.715 105.072 353.988 105.072C354.438 105.072 354.863 105.03 355.264 104.949C354.421 108.796 350.708 111.558 347.2 112.11L346.486 112.223V120.52L347.412 120.432C351.668 120.026 355.872 118.095 358.952 115.132C362.967 111.268 365.09 105.688 365.09 98.9961C365.09 92.3824 360.741 87.5818 354.75 87.5818V87.5818Z" fill="#95A5A6"/>
<path d="M112.371 89.2967H92.5913V79.155C92.5913 71.055 85.9907 64.4659 77.8795 64.4659C69.7683 64.4659 63.1701 71.0575 63.1701 79.155V89.2967H43.3903V79.155C43.3903 60.1641 58.8623 44.7108 77.8819 44.7108C96.9016 44.7108 112.374 60.1616 112.374 79.155V89.2967H112.371V89.2967Z" fill="#95A5A6"/>
<path d="M120.349 89.2967H35.4119C31.7856 89.2967 28.8186 92.2596 28.8186 95.8809V158.627C28.8186 162.249 31.7856 165.212 35.4119 165.212H120.349C123.976 165.212 126.943 162.249 126.943 158.627V95.8809C126.943 92.2596 123.976 89.2967 120.349 89.2967ZM82.1848 130.495V138.998C82.1848 141.371 80.256 143.294 77.8819 143.294C75.5078 143.294 73.5791 141.368 73.5791 138.998V130.497C70.9319 128.996 69.1434 126.163 69.1434 122.906C69.1434 118.085 73.0575 114.179 77.8819 114.179C82.7088 114.179 86.6205 118.088 86.6205 122.906C86.6205 126.161 84.8319 128.994 82.1848 130.495V130.495Z" fill="#95A5A6"/>
<path d="M26.8013 79.9413H6.30556C2.98185 79.9413 0.287964 77.2511 0.287964 73.9319C0.287964 70.6128 2.98185 67.9226 6.30556 67.9226H26.8013C30.125 67.9226 32.8189 70.6128 32.8189 73.9319C32.8189 77.2511 30.1225 79.9413 26.8013 79.9413Z" fill="#95A5A6"/>
<path d="M41.2376 47.745C39.8943 47.745 38.5388 47.2979 37.4194 46.3766L21.2068 33.0632C18.6409 30.9553 18.2694 27.1694 20.3827 24.6045C22.4935 22.0421 26.2846 21.6711 28.8531 23.779L45.0656 37.0923C47.6316 39.2003 48.0031 42.9862 45.8898 45.5511C44.7015 46.9981 42.9769 47.745 41.2376 47.745V47.745Z" fill="#95A5A6"/>
<path d="M77.8795 33.5939C74.5558 33.5939 71.8619 30.9037 71.8619 27.5846V6.95491C71.8619 3.63579 74.5558 0.945602 77.8795 0.945602C81.2032 0.945602 83.8971 3.63579 83.8971 6.95491V27.5846C83.8971 30.9037 81.2032 33.5939 77.8795 33.5939Z" fill="#95A5A6"/>
<path d="M114.521 47.745C112.782 47.745 111.06 46.9981 109.869 45.5511C107.758 42.9886 108.127 39.2003 110.693 37.0923L126.906 23.779C129.474 21.6711 133.265 22.0421 135.376 24.6045C137.487 27.1669 137.118 30.9553 134.552 33.0632L118.34 46.3766C117.22 47.2979 115.867 47.745 114.521 47.745V47.745Z" fill="#95A5A6"/>
<path d="M149.456 79.9413H128.766C125.442 79.9413 122.748 77.2511 122.748 73.9319C122.748 70.6128 125.442 67.9226 128.766 67.9226H149.456C152.78 67.9226 155.473 70.6128 155.473 73.9319C155.473 77.2511 152.78 79.9413 149.456 79.9413V79.9413Z" fill="#95A5A6"/>
</svg>
