<svg width="763" height="208" viewBox="0 0 763 208" fill="none" xmlns="http://www.w3.org/2000/svg">
<path d="M0.524051 8.51633L33.8842 0.519485V161.277C33.8842 178.911 39.148 189.368 49.6073 192.786C44.4802 202.559 35.6616 207.481 23.1515 207.481C8.04376 207.481 0.455688 196.955 0.455688 175.972V8.51633H0.524051Z" fill="#95A5A6"/>
<path d="M84.4031 204.815V89.1683H66.0823V61.7603H118.173V204.747H84.4031V204.815ZM101.63 6.39751C106.962 6.39751 111.542 8.31128 115.302 12.0705C119.062 15.8297 120.976 20.4091 120.976 25.7403C120.976 31.0715 119.062 35.6509 115.302 39.4101C111.542 43.1693 106.962 45.0831 101.63 45.0831C96.2979 45.0831 91.7177 43.1693 87.9578 39.4101C84.198 35.6509 82.2839 31.0715 82.2839 25.7403C82.2839 20.4091 84.198 15.8297 87.9578 12.0705C91.7177 8.31128 96.2979 6.39751 101.63 6.39751Z" fill="#95A5A6"/>
<path d="M249.016 204.815V122.181C249.016 110.015 246.692 101.061 241.975 95.4564C237.327 89.8518 229.67 87.0495 219.074 87.0495C214.152 87.0495 208.957 88.4164 203.351 91.1504C197.814 93.8844 193.439 97.3018 190.363 101.403V204.747H157.002V61.8286H181.065L187.218 75.1567C196.31 64.4943 209.709 59.163 227.414 59.163C244.436 59.163 257.835 64.2892 267.679 74.4732C277.523 84.6572 282.445 98.8739 282.445 117.123V204.815H249.016V204.815Z" fill="#95A5A6"/>
<path d="M309.174 132.98C309.174 111.177 315.463 93.4059 328.042 79.7361C340.62 65.9979 357.3 59.163 377.945 59.163C399.684 59.163 416.569 65.7245 428.532 78.9159C440.564 92.1073 446.58 110.151 446.58 132.98C446.58 155.74 440.427 173.921 428.191 187.318C415.954 200.782 399.205 207.481 377.945 207.481C356.206 207.481 339.321 200.714 327.29 187.113C315.19 173.579 309.174 155.467 309.174 132.98ZM343.901 132.98C343.901 164.489 355.249 180.278 377.945 180.278C388.336 180.278 396.608 176.177 402.692 167.975C408.776 159.773 411.852 148.154 411.852 132.98C411.852 101.95 400.573 86.366 377.945 86.366C367.554 86.366 359.283 90.4669 353.13 98.6688C346.909 106.871 343.901 118.285 343.901 132.98Z" fill="#95A5A6"/>
<path d="M565.254 204.815V196.135C562.52 199.142 557.803 201.808 551.24 204.063C544.678 206.319 537.842 207.481 530.8 207.481C510.839 207.481 495.184 201.192 483.768 188.548C472.352 175.903 466.609 158.269 466.609 135.646C466.609 113.022 473.172 94.6362 486.297 80.4196C499.423 66.203 515.898 59.0947 535.654 59.0947C546.524 59.0947 556.367 61.3502 565.323 65.7929V8.51633L598.683 0.519485V204.815H565.254ZM565.254 96.0032C558.145 90.3302 550.694 87.4596 542.969 87.4596C529.638 87.4596 519.316 91.5605 512.138 99.694C504.892 107.828 501.337 119.515 501.337 134.757C501.337 164.489 515.693 179.321 544.336 179.321C547.549 179.321 551.446 178.364 556.162 176.45C560.811 174.536 563.887 172.623 565.323 170.64V96.0032H565.254Z" fill="#95A5A6"/>
<path d="M759.673 143.506H657.542C658.157 154.92 662.122 163.737 669.3 170.094C676.478 176.382 686.253 179.594 698.422 179.594C713.666 179.594 725.219 175.63 733.149 167.701L746.138 193.196C734.379 202.696 716.811 207.481 693.5 207.481C671.692 207.481 654.465 201.124 641.75 188.343C629.035 175.562 622.678 157.722 622.678 134.894C622.678 112.407 629.65 94.1578 643.596 80.1462C657.542 66.203 674.222 59.163 693.705 59.163C714.418 59.163 731.098 65.3828 743.608 77.754C756.187 90.1252 762.476 105.845 762.476 124.983C762.476 129.084 761.587 135.236 759.673 143.506ZM658.704 118.422H728.911C726.586 97.5069 715.033 87.0495 694.183 87.0495C675.179 87.0495 663.352 97.5069 658.704 118.422Z" fill="#95A5A6"/>
</svg>
