<svg width="348" height="84" viewBox="0 0 348 84" fill="none" xmlns="http://www.w3.org/2000/svg">
<g clip-path="url(#clip0)">
<path d="M347.68 60.4L338.93 45.31C341.813 44.0807 344.182 41.8935 345.638 39.1184C347.094 36.3432 347.547 33.1504 346.92 30.0798C346.294 27.0093 344.626 24.2494 342.198 22.2669C339.771 20.2845 336.734 19.2011 333.6 19.2H314.4C313.763 19.2 313.153 19.4529 312.703 19.9029C312.253 20.353 312 20.9635 312 21.6V61.6C311.999 61.9155 312.06 62.2282 312.18 62.52C312.3 62.8118 312.477 63.0769 312.7 63.3C312.923 63.5231 313.188 63.6999 313.48 63.82C313.772 63.9401 314.084 64.0013 314.4 64H316C316.637 64 317.247 63.7471 317.697 63.2971C318.147 62.847 318.4 62.2365 318.4 61.6V46.4H332.4L341.92 62.8C342.13 63.1658 342.433 63.4694 342.798 63.6802C343.164 63.891 343.578 64.0013 344 64H345.63C346.051 64.0003 346.465 63.8896 346.831 63.679C347.196 63.4685 347.499 63.1656 347.71 62.8007C347.92 62.4358 348.031 62.0218 348.032 61.6004C348.032 61.179 347.921 60.765 347.71 60.4H347.68ZM318.4 25.6H333.6C335.51 25.6 337.341 26.3586 338.691 27.7088C340.041 29.0591 340.8 30.8904 340.8 32.8C340.8 34.7096 340.041 36.5409 338.691 37.8912C337.341 39.2414 335.51 40 333.6 40H318.4V25.6Z" fill="#95A5A6"/>
<path d="M298.4 19.2H264.8C264.163 19.2 263.553 19.4529 263.103 19.9029C262.653 20.353 262.4 20.9635 262.4 21.6V23.2C262.399 23.5155 262.46 23.8282 262.58 24.12C262.7 24.4118 262.877 24.6769 263.1 24.9C263.323 25.1231 263.588 25.2999 263.88 25.42C264.172 25.5401 264.484 25.6013 264.8 25.6H278.4V61.6C278.399 61.9155 278.46 62.2282 278.58 62.52C278.7 62.8118 278.877 63.0769 279.1 63.3C279.323 63.5231 279.588 63.6999 279.88 63.82C280.172 63.9401 280.484 64.0013 280.8 64H282.4C283.037 64 283.647 63.7471 284.097 63.2971C284.547 62.847 284.8 62.2365 284.8 61.6V25.6H298.4C299.037 25.6 299.647 25.3471 300.097 24.8971C300.547 24.447 300.8 23.8365 300.8 23.2V21.6C300.797 20.9643 300.544 20.3554 300.094 19.9058C299.645 19.4563 299.036 19.2026 298.4 19.2V19.2Z" fill="#95A5A6"/>
<path d="M263.2 57.6H241.6V21.6C241.597 20.9643 241.344 20.3554 240.894 19.9058C240.445 19.4563 239.836 19.2026 239.2 19.2H237.6C236.963 19.2 236.353 19.4529 235.903 19.9029C235.453 20.353 235.2 20.9635 235.2 21.6V61.6C235.199 61.9155 235.26 62.2282 235.38 62.52C235.5 62.8118 235.677 63.0769 235.9 63.3C236.123 63.5231 236.388 63.6999 236.68 63.82C236.972 63.9401 237.284 64.0013 237.6 64H263.2C263.837 64 264.447 63.7471 264.897 63.2971C265.347 62.847 265.6 62.2365 265.6 61.6V60C265.597 59.3643 265.344 58.7554 264.894 58.3058C264.445 57.8563 263.836 57.6026 263.2 57.6V57.6Z" fill="#95A5A6"/>
<path d="M222.4 21.6C222.397 20.9643 222.144 20.3554 221.694 19.9058C221.245 19.4563 220.636 19.2026 220 19.2H218.4C217.763 19.2 217.153 19.4529 216.703 19.9029C216.253 20.353 216 20.9635 216 21.6V46.4C216 49.5826 214.736 52.6348 212.485 54.8853C210.235 57.1357 207.183 58.4 204 58.4C200.817 58.4 197.765 57.1357 195.515 54.8853C193.264 52.6348 192 49.5826 192 46.4V21.6C191.997 20.9643 191.744 20.3554 191.294 19.9058C190.845 19.4563 190.236 19.2026 189.6 19.2H188C187.363 19.2 186.753 19.4529 186.303 19.9029C185.853 20.353 185.6 20.9635 185.6 21.6V46.4C185.6 51.28 187.539 55.9601 190.989 59.4108C194.44 62.8614 199.12 64.8 204 64.8C208.88 64.8 213.56 62.8614 217.011 59.4108C220.461 55.9601 222.4 51.28 222.4 46.4V21.6Z" fill="#95A5A6"/>
<path d="M173.6 19.2H172.09C171.609 19.197 171.139 19.3397 170.741 19.6092C170.343 19.8788 170.036 20.2625 169.86 20.71L156 55.35L142.14 20.71C141.963 20.2633 141.656 19.8803 141.258 19.611C140.86 19.3416 140.39 19.1984 139.91 19.2H138.4C138.008 19.1998 137.622 19.2957 137.275 19.4794C136.929 19.663 136.632 19.9288 136.412 20.2534C136.192 20.5781 136.055 20.9517 136.013 21.3416C135.971 21.7315 136.025 22.1258 136.17 22.49L152.17 62.49C152.347 62.9367 152.654 63.3196 153.052 63.589C153.45 63.8584 153.92 64.0016 154.4 64H157.6C158.08 64.0016 158.55 63.8584 158.948 63.589C159.346 63.3196 159.653 62.9367 159.83 62.49L175.83 22.49C175.975 22.1258 176.029 21.7315 175.987 21.3416C175.945 20.9517 175.808 20.5781 175.588 20.2534C175.368 19.9288 175.071 19.663 174.725 19.4794C174.378 19.2957 173.992 19.1998 173.6 19.2V19.2Z" fill="#95A5A6"/>
<path d="M0.739991 7.36C0.28218 6.63387 0.027465 5.79827 0.00238529 4.94024C-0.0226944 4.08221 0.182779 3.23315 0.597397 2.48153C1.01201 1.7299 1.62061 1.10322 2.35976 0.666765C3.09892 0.230311 3.94159 5.83742e-05 4.79999 -3.28824e-06H29.39C30.2012 -0.00181854 30.9995 0.202847 31.7098 0.594723C32.4201 0.9866 33.0189 1.55279 33.45 2.24L67.55 56.34C68.0332 57.1064 68.2896 57.994 68.2896 58.9C68.2896 59.806 68.0332 60.6936 67.55 61.46L55.26 81C54.8275 81.6858 54.2283 82.2509 53.5183 82.6425C52.8084 83.0341 52.0108 83.2395 51.2 83.2395C50.3892 83.2395 49.5916 83.0341 48.8817 82.6425C48.1717 82.2509 47.5725 81.6858 47.14 81L0.739991 7.36Z" fill="#95A5A6"/>
<path d="M74.85 37C75.281 37.6924 75.8813 38.2635 76.5943 38.6596C77.3073 39.0556 78.1094 39.2634 78.925 39.2634C79.7406 39.2634 80.5427 39.0556 81.2557 38.6596C81.9687 38.2635 82.569 37.6924 83 37L87.2 30.3L95.26 17.51C95.7432 16.7436 95.9996 15.856 95.9996 14.95C95.9996 14.044 95.7432 13.1564 95.26 12.39L88.86 2.24C88.4289 1.55279 87.8301 0.9866 87.1198 0.594723C86.4095 0.202847 85.6112 -0.00181854 84.8 -3.28824e-06H60.21C59.3516 5.83742e-05 58.5089 0.230311 57.7698 0.666765C57.0306 1.10322 56.422 1.7299 56.0074 2.48153C55.5928 3.23315 55.3873 4.08221 55.4124 4.94024C55.4375 5.79827 55.6922 6.63387 56.15 7.36L74.85 37Z" fill="#95A5A6"/>
</g>
<defs>
<clipPath id="clip0">
<rect width="348" height="83.2" fill="white"/>
</clipPath>
</defs>
</svg>
